<!DOCTYPE svg PUBLIC "-//W3C//DTD SVG 1.1//EN" "http://www.w3.org/Graphics/SVG/1.1/DTD/svg11.dtd">
<!-- Uploaded to: SVG Repo, www.svgrepo.com, Transformed by: SVG Repo Mixer Tools -->
<svg fill="#ffffff" height="800px" width="800px" version="1.1" id="Layer_1" xmlns="http://www.w3.org/2000/svg" xmlns:xlink="http://www.w3.org/1999/xlink" viewBox="0 0 512 512" xml:space="preserve">
<g id="SVGRepo_bgCarrier" stroke-width="0"/>
<g id="SVGRepo_tracerCarrier" stroke-linecap="round" stroke-linejoin="round"/>
<g id="SVGRepo_iconCarrier"> <g> <g> <path d="M456.391,0H55.608c-9.219,0-16.699,7.363-16.699,16.588s7.48,16.699,16.699,16.699H239.3v33.892 c-18.786,2.424-33.399,18.342-33.399,37.776v37.296c-58.279,20.698-100.196,76.239-100.196,141.525v97.065 c0,29.348,23.874,53.23,53.229,53.23h4.941l-19.086,44.642h-22.385c-9.219,0-16.699,7.363-16.699,16.588S113.186,512,122.405,512 c1.998,0,48.098,0,66.797,0c9.219,0,16.699-7.475,16.699-16.699c0-9.225-7.48-16.588-16.699-16.588h-8.072l19.086-44.643h111.568 l19.086,44.643h-8.072c-9.219,0-16.699,7.363-16.699,16.588S313.579,512,322.798,512c2.035,0,48.012,0,66.797,0 c9.219,0,16.699-7.475,16.699-16.699c0-9.225-7.48-16.588-16.699-16.588H367.21l-19.086-44.643h4.941 c29.354,0,53.229-23.88,53.229-53.229v-97.064c0-65.286-41.916-120.827-100.196-141.525v-37.296 c0-19.435-14.613-35.354-33.399-37.776V33.287h183.692c9.219,0,16.699-7.475,16.699-16.699S465.61,0,456.391,0z M372.895,283.776 v50.209h-33.399V318.36c0-27.625-22.473-50.098-50.098-50.098c-27.625,0-50.098,22.473-50.098,50.098v15.626H139.105v-50.209 c0-64.455,52.436-116.895,116.895-116.895S372.895,219.323,372.895,283.776z"/> </g> </g> </g>
</svg>