<svg version="1.1" id="Layer_1" xmlns="http://www.w3.org/2000/svg" xmlns:xlink="http://www.w3.org/1999/xlink" x="0px" y="0px"
	 width="100%" viewBox="0 0 2500 1000" enable-background="new 0 0 2500 1000" xml:space="preserve">
<path fill="#000000" opacity="1.000000" stroke="none" 
	d="
M1602.000000,1001.000000 
	C1068.000000,1001.000000 534.500000,1001.000000 1.000000,1001.000000 
	C1.000000,667.666687 1.000000,334.333344 1.000000,1.000000 
	C834.333313,1.000000 1667.666626,1.000000 2501.000000,1.000000 
	C2501.000000,334.333344 2501.000000,667.666687 2501.000000,1001.000000 
	C2201.500000,1001.000000 1902.000000,1001.000000 1602.000000,1001.000000 
M986.140076,282.016022 
	C979.015991,283.670624 971.899597,285.358917 964.765564,286.969604 
	C958.597900,288.362122 952.429993,289.766022 946.227417,290.988617 
	C934.094910,293.380096 921.942688,295.672699 909.789490,297.957336 
	C904.206604,299.006836 898.602112,299.940857 893.000732,300.020111 
	C893.333862,296.105133 894.154114,292.159393 893.909363,288.280884 
	C893.157166,276.361420 892.941284,264.291840 890.764465,252.607101 
	C887.834473,236.879532 879.794800,223.649628 866.632874,213.966064 
	C849.094849,201.062866 828.693542,196.394424 807.692871,196.217819 
	C738.708008,195.637726 669.714844,195.879929 600.725769,196.090714 
	C585.058533,196.138565 569.381836,197.118591 553.733154,198.061401 
	C539.408081,198.924469 525.921021,203.531845 513.105408,209.563553 
	C494.395142,218.369614 479.374420,231.985321 468.417267,249.383377 
	C454.865753,270.900787 447.615326,294.859528 443.954041,319.970459 
	C442.389923,330.697754 440.343506,341.355225 438.481903,352.038452 
	C436.677399,362.393890 434.817871,372.739777 433.002686,383.093353 
	C431.130493,393.772125 429.284882,404.455505 427.423431,415.136139 
	C425.618225,425.494232 423.813812,435.852478 421.997925,446.208679 
	C420.125916,456.884735 418.226074,467.555908 416.364838,478.233826 
	C414.558960,488.594421 412.809784,498.964874 410.993164,509.323547 
	C409.121338,519.997070 407.167328,530.656189 405.306274,541.331482 
	C403.499664,551.694519 401.780151,562.072693 399.995422,572.439575 
	C398.183350,582.965454 396.351776,593.487976 394.503906,604.007568 
	C392.685364,614.359924 390.796875,624.700073 389.010498,635.057983 
	C387.194336,645.588318 385.401337,656.123535 383.714844,666.675232 
	C381.744019,679.005798 379.217285,691.300110 378.190430,703.714233 
	C377.149170,716.302124 377.724121,729.003479 380.994354,741.396912 
	C386.236267,761.262756 397.318787,776.497253 415.849915,786.004578 
	C434.600067,795.624268 455.027496,797.654114 475.436066,797.817932 
	C537.922729,798.319397 600.416016,798.019165 662.906738,797.989685 
	C683.975952,797.979736 704.984741,798.077087 725.906738,794.171387 
	C747.368103,790.165100 766.537354,781.721558 782.866943,767.473022 
	C798.955688,753.434631 810.164185,735.606140 816.737000,715.493713 
	C821.712952,700.267944 824.561951,684.321594 827.936951,668.605591 
	C830.920898,654.710327 833.380554,640.700806 835.967163,626.722290 
	C838.379822,613.684021 840.686218,600.625793 842.973328,587.564697 
	C843.798584,582.851501 844.431885,578.104675 845.141479,573.447205 
	C844.243835,573.194397 843.933838,573.030762 843.623901,573.030640 
	C797.464233,573.012695 751.304504,573.039734 705.145081,572.920959 
	C702.238831,572.913452 701.420288,574.286621 701.018677,576.528870 
	C698.994385,587.832275 696.955078,599.133423 695.023254,610.452759 
	C692.300232,626.408142 689.908203,642.424438 686.890930,658.322937 
	C685.446960,665.931152 681.587097,673.135498 669.477783,673.058350 
	C640.816528,672.875977 612.153320,672.999817 583.490906,672.999817 
	C568.159851,672.999817 552.828613,673.041199 537.497803,672.980896 
	C530.621948,672.953796 527.754395,670.254639 528.081665,663.525330 
	C528.365906,657.679932 529.061462,651.817444 530.080139,646.051758 
	C533.257446,628.067871 536.688904,610.128967 539.992615,592.167297 
	C542.010254,581.197754 544.051697,570.231567 545.939941,559.239380 
	C547.719971,548.877197 549.313354,538.482971 551.633057,527.817322 
	C555.761169,521.157410 559.761108,514.412964 564.073608,507.874695 
	C566.101990,504.799469 568.205139,501.188019 571.216370,499.488953 
	C575.345642,497.159088 580.321777,496.224274 585.021851,495.034821 
	C593.771362,492.820526 602.621399,491.000702 611.359619,488.745361 
	C621.129272,486.223846 630.808350,483.354065 640.549805,480.720398 
	C654.698120,476.895203 668.874084,473.172333 683.024658,469.355103 
	C693.196472,466.611145 703.308411,463.636566 713.516418,461.037537 
	C723.026733,458.616211 732.640503,456.604340 742.187256,454.322601 
	C753.644836,451.584045 765.076843,448.738678 776.525269,445.961700 
	C787.080322,443.401367 797.629089,440.812775 808.205566,438.343445 
	C817.687500,436.129639 827.201294,434.051788 836.705383,431.933350 
	C840.827271,431.014618 845.309509,430.863190 848.998840,429.069275 
	C853.549866,426.856445 856.110840,427.928040 858.027832,432.005341 
	C861.758118,439.939453 865.172302,448.027832 869.085571,455.868561 
	C872.431519,462.572693 874.592468,470.789520 881.976562,473.990051 
	C890.641846,477.745941 899.892761,480.371124 909.105286,482.592285 
	C922.638977,485.855286 936.363708,488.325531 949.999695,491.995483 
	C947.958984,504.789124 946.057922,517.607056 943.840271,530.369934 
	C941.377930,544.540710 938.508362,558.640564 936.032471,572.809204 
	C933.217651,588.917725 930.743530,605.085754 927.934570,621.195374 
	C925.074463,637.597778 921.972473,653.957947 919.004639,670.341736 
	C917.073364,681.003357 915.187561,691.673279 913.290588,702.341125 
	C910.855347,716.035339 908.419250,729.729309 906.002197,743.426758 
	C903.781799,756.009766 901.550964,768.591064 899.395569,781.185303 
	C898.456177,786.674622 897.693848,792.194336 896.805054,798.001038 
	C944.061462,798.001038 990.537720,797.976013 1037.013672,798.060791 
	C1039.909546,798.066101 1040.637329,796.549133 1040.989258,794.314331 
	C1041.770996,789.348022 1042.403809,784.356384 1043.276367,779.406616 
	C1045.465454,766.990234 1047.733643,754.587524 1050.008545,742.186462 
	C1051.874634,732.013855 1053.858521,721.862610 1055.675781,711.681396 
	C1057.523926,701.325989 1059.198364,690.939819 1061.010742,680.577881 
	C1062.794067,670.381653 1064.652710,660.198547 1066.481934,650.010315 
	C1068.653076,637.917358 1070.821533,625.823853 1073.003662,613.732849 
	C1074.369507,606.165283 1075.758423,598.601929 1077.117554,591.143005 
	C1105.329346,591.143005 1132.963745,591.143005 1160.574219,591.143005 
	C1161.836060,595.747009 1162.951904,600.246216 1164.302002,604.674072 
	C1173.840454,635.957886 1183.464478,667.215515 1192.987427,698.504028 
	C1202.697876,730.408936 1212.366211,762.327087 1221.913818,794.281006 
	C1222.763062,797.123535 1223.892090,798.079407 1226.903198,798.072449 
	C1271.729248,797.969116 1316.555664,798.008911 1361.381958,797.967163 
	C1362.884766,797.965759 1364.387085,797.463196 1365.717163,797.225098 
	C1344.479858,724.557007 1323.399048,652.424744 1302.513184,580.959351 
	C1311.898926,578.028748 1321.361328,575.866882 1330.179810,572.169189 
	C1354.835327,561.830933 1372.496582,543.596558 1384.849609,520.309814 
	C1394.410645,502.286102 1399.545532,482.669250 1402.998169,462.622192 
	C1406.019531,445.080170 1408.919922,427.516602 1412.059204,409.995819 
	C1414.908936,394.091675 1418.167969,378.260254 1420.954102,362.345581 
	C1423.830566,345.914520 1426.248047,329.403503 1429.062744,312.961090 
	C1431.789429,297.032501 1432.843140,281.139191 1431.138794,264.955536 
	C1429.392944,248.377090 1423.687256,233.749954 1413.869751,220.957077 
	C1423.535034,219.468521 1433.206665,218.019135 1442.862915,216.474045 
	C1447.354614,215.755341 1451.850586,214.991180 1456.267456,213.927689 
	C1457.314941,213.675476 1458.902222,211.944824 1458.741333,211.233414 
	C1458.474243,210.052582 1457.148804,208.857300 1455.970825,208.218323 
	C1455.063354,207.726105 1453.670532,207.905212 1452.539795,208.081635 
	C1437.054810,210.497604 1421.577881,212.965042 1405.492310,214.989304 
	C1403.140869,213.287766 1400.900513,211.400589 1398.419922,209.914703 
	C1381.830566,199.977737 1363.357910,196.224777 1344.509766,196.167480 
	C1232.179932,195.825851 1119.848511,195.998489 1007.517700,195.998489 
	C1005.726074,195.998489 1003.934387,195.998489 1002.378906,195.998489 
	C1000.359863,207.680084 998.445923,218.852554 996.493774,230.018356 
	C994.683350,240.373672 992.871033,250.728989 990.984741,261.070648 
	C989.713135,268.041687 988.311584,274.989044 986.140076,282.016022 
M1865.000977,630.498474 
	C1901.044312,566.387634 1937.087769,502.276855 1973.131226,438.166077 
	C1973.476074,438.280548 1973.821045,438.394989 1974.166016,438.509460 
	C1953.047241,558.216248 1931.928467,677.923035 1910.780273,797.797119 
	C1957.611572,797.797119 2003.725830,797.797119 2050.001709,797.797119 
	C2085.267578,597.224426 2120.503906,396.820801 2155.775146,196.216827 
	C2103.394287,196.216827 2050.954102,196.216827 1998.365356,196.216827 
	C1996.075684,202.013702 1993.767700,207.856934 1991.338867,214.005676 
	C1994.981079,214.942490 1998.112793,215.428665 2000.958496,216.606110 
	C2002.531616,217.256958 2004.605225,218.946732 2004.778442,220.371841 
	C2006.028687,230.648727 2003.997070,240.416595 1998.748901,249.354660 
	C1998.096802,250.465424 1995.797485,251.275696 1994.362183,251.142075 
	C1988.760132,250.620529 1983.197144,249.674545 1977.622559,248.865295 
	C1970.702759,247.860733 1963.387207,247.467392 1961.767090,237.312866 
	C1960.219238,239.541031 1959.468018,240.739517 1958.601929,241.848145 
	C1955.302734,246.070862 1956.140503,249.146011 1960.697632,251.976532 
	C1966.902222,255.830322 1973.427368,258.033051 1980.763672,258.088593 
	C1982.984985,258.105377 1985.199463,258.991882 1987.417114,259.479980 
	C1984.969727,260.275024 1982.532104,261.103577 1980.065308,261.832855 
	C1979.645508,261.956940 1979.104248,261.594513 1978.611938,261.559875 
	C1969.071289,260.889191 1960.486328,257.884827 1953.583618,250.854935 
	C1900.903198,343.786224 1848.453003,436.311584 1795.614624,529.521423 
	C1769.941162,426.388824 1744.489014,324.145447 1719.124756,222.255524 
	C1710.923828,223.641739 1704.096680,225.002014 1697.207520,225.868378 
	C1694.022217,226.268967 1692.281372,227.530579 1690.968994,230.442017 
	C1687.345825,238.478943 1683.396851,246.368759 1679.590576,254.323364 
	C1677.527588,258.634857 1675.493042,262.959991 1674.092773,265.913910 
	C1676.213745,268.481720 1678.764648,270.181641 1678.688354,271.754150 
	C1678.504761,275.542419 1675.091919,274.309326 1672.845947,273.972290 
	C1654.577881,271.230865 1636.321289,268.409729 1618.075317,265.524811 
	C1594.251587,261.757965 1570.447998,257.862274 1546.605469,254.220566 
	C1545.214844,254.008148 1542.406128,255.332214 1542.196045,256.343842 
	C1540.223389,265.843170 1538.623291,275.421844 1537.013794,284.994110 
	C1534.919312,297.451752 1533.028442,309.944519 1530.840088,322.385254 
	C1528.348022,336.551910 1525.507812,350.657440 1523.033081,364.826965 
	C1520.219604,380.936279 1517.744141,397.104614 1514.935181,413.214752 
	C1512.075073,429.617645 1508.994019,445.982056 1505.998413,462.361267 
	C1504.021240,473.171997 1501.971191,483.969635 1500.052124,494.790619 
	C1498.299438,504.673553 1496.708252,514.585022 1494.992920,524.474731 
	C1492.809448,537.065308 1490.568726,549.645996 1488.360229,562.232239 
	C1486.235229,574.343079 1484.106812,586.453247 1482.003540,598.567871 
	C1479.844727,611.003540 1477.731567,623.447266 1475.566162,635.881836 
	C1473.734619,646.398376 1471.844849,656.904724 1470.003418,667.419556 
	C1468.160889,677.940979 1466.373413,688.472107 1464.511353,698.990112 
	C1462.707520,709.178101 1460.821411,719.351501 1459.004517,729.537170 
	C1456.760742,742.116821 1454.530273,754.698853 1452.333496,767.286743 
	C1450.567017,777.409119 1448.859375,787.541809 1447.103149,797.800903 
	C1492.837036,797.800903 1538.278809,797.800903 1583.707642,797.800903 
	C1604.987061,677.223694 1626.231934,556.841736 1647.495483,436.353851 
	C1647.954590,437.126984 1648.665405,437.885864 1648.890991,438.768646 
	C1653.623535,457.299805 1658.337402,475.835907 1662.982666,494.389160 
	C1672.432373,532.131409 1681.771851,569.901367 1691.282471,607.628174 
	C1700.437744,643.944214 1709.852783,680.195190 1718.845093,716.551208 
	C1719.792480,720.381836 1721.204224,721.081848 1724.677979,721.066711 
	C1752.174438,720.946838 1779.674927,720.782349 1807.166138,721.176697 
	C1812.923706,721.259277 1815.606812,718.875305 1818.006348,714.417847 
	C1824.402588,702.535522 1830.970703,690.744995 1837.549438,678.961975 
	C1846.481201,662.964233 1855.486450,647.007568 1865.000977,630.498474 
M1637.861328,217.650330 
	C1636.187256,221.875992 1634.513306,226.101654 1633.124512,229.607224 
	C1636.973511,232.832947 1642.169800,230.056381 1643.936646,234.586319 
	C1643.749512,235.257095 1643.562378,235.927872 1643.375244,236.598648 
	C1618.251465,231.656342 1593.127686,226.714035 1567.960083,221.763077 
	C1568.891968,218.197693 1568.891968,218.197693 1582.156738,220.318604 
	C1582.920654,216.081421 1583.688721,211.821152 1584.511353,207.258987 
	C1578.541016,206.163315 1573.070068,205.159302 1567.303345,204.100998 
	C1563.939575,212.485413 1560.619751,220.760498 1557.143433,229.425247 
	C1594.324829,235.305984 1630.291382,240.994583 1666.443970,246.712585 
	C1669.584839,239.515793 1672.661621,232.466263 1675.966919,224.892731 
	C1663.402222,222.505783 1651.056763,220.160507 1637.861328,217.650330 
M1635.604614,261.951080 
	C1639.053223,262.417664 1642.539062,262.699799 1645.943970,263.383728 
	C1658.689941,265.944092 1658.680664,265.993622 1663.307495,254.104263 
	C1663.406494,253.849548 1663.447144,253.572098 1663.624268,252.876251 
	C1624.515381,246.689194 1585.471436,240.512405 1546.520874,234.350372 
	C1545.584106,237.895020 1544.424316,240.806702 1544.207642,243.786972 
	C1544.112915,245.088898 1545.774536,247.558044 1546.933838,247.754410 
	C1562.279541,250.353973 1577.685669,252.594681 1593.060913,255.024139 
	C1606.963501,257.220856 1620.846924,259.538940 1635.604614,261.951080 
M1632.030151,219.714447 
	C1633.249268,217.530472 1632.500977,216.489883 1630.127319,216.069305 
	C1625.557983,215.259689 1621.021606,214.266388 1616.459473,213.414017 
	C1607.098145,211.664978 1597.728882,209.958649 1588.535034,208.266464 
	C1587.081421,211.933151 1588.448242,213.156052 1591.302490,213.566116 
	C1594.087524,213.966263 1596.858398,214.500565 1599.609375,215.096405 
	C1609.610352,217.262604 1619.593994,219.509201 1629.609009,221.606857 
	C1630.248535,221.740799 1631.098999,220.867767 1632.030151,219.714447 
M1609.351807,226.121613 
	C1615.171509,227.314651 1620.966187,228.676804 1626.833496,229.550171 
	C1627.933960,229.713974 1629.325073,227.924118 1630.582153,227.035812 
	C1630.312134,226.534592 1630.042114,226.033386 1629.772095,225.532166 
	C1616.377319,222.690903 1602.994385,219.789398 1589.563843,217.128403 
	C1588.543945,216.926331 1587.185913,218.430786 1585.984985,219.141937 
	C1587.037598,220.090546 1587.956055,221.606781 1589.165405,221.892944 
	C1595.577148,223.410126 1602.062134,224.618286 1609.351807,226.121613 
M1552.045166,223.474792 
	C1552.751831,220.083633 1553.458374,216.692474 1554.345581,212.434891 
	C1547.786743,216.571732 1548.660400,222.664932 1546.989014,227.834290 
	C1550.999878,227.973816 1550.999878,227.973816 1552.045166,223.474792 
z"/>
<path fill="#FFFFFF" opacity="1.000000" stroke="none" 
	d="
M1864.730591,630.765869 
	C1855.486450,647.007568 1846.481201,662.964233 1837.549438,678.961975 
	C1830.970703,690.744995 1824.402588,702.535522 1818.006348,714.417847 
	C1815.606812,718.875305 1812.923706,721.259277 1807.166138,721.176697 
	C1779.674927,720.782349 1752.174438,720.946838 1724.677979,721.066711 
	C1721.204224,721.081848 1719.792480,720.381836 1718.845093,716.551208 
	C1709.852783,680.195190 1700.437744,643.944214 1691.282471,607.628174 
	C1681.771851,569.901367 1672.432373,532.131409 1662.982666,494.389160 
	C1658.337402,475.835907 1653.623535,457.299805 1648.890991,438.768646 
	C1648.665405,437.885864 1647.954590,437.126984 1647.495483,436.353851 
	C1626.231934,556.841736 1604.987061,677.223694 1583.707642,797.800903 
	C1538.278809,797.800903 1492.837036,797.800903 1447.103149,797.800903 
	C1448.859375,787.541809 1450.567017,777.409119 1452.333496,767.286743 
	C1454.530273,754.698853 1456.760742,742.116821 1459.004517,729.537170 
	C1460.821411,719.351501 1462.707520,709.178101 1464.511353,698.990112 
	C1466.373413,688.472107 1468.160889,677.940979 1470.003418,667.419556 
	C1471.844849,656.904724 1473.734619,646.398376 1475.566162,635.881836 
	C1477.731567,623.447266 1479.844727,611.003540 1482.003540,598.567871 
	C1484.106812,586.453247 1486.235229,574.343079 1488.360229,562.232239 
	C1490.568726,549.645996 1492.809448,537.065308 1494.992920,524.474731 
	C1496.708252,514.585022 1498.299438,504.673553 1500.052124,494.790619 
	C1501.971191,483.969635 1504.021240,473.171997 1505.998413,462.361267 
	C1508.994019,445.982056 1512.075073,429.617645 1514.935181,413.214752 
	C1517.744141,397.104614 1520.219604,380.936279 1523.033081,364.826965 
	C1525.507812,350.657440 1528.348022,336.551910 1530.840088,322.385254 
	C1533.028442,309.944519 1534.919312,297.451752 1537.013794,284.994110 
	C1538.623291,275.421844 1540.223389,265.843170 1542.196045,256.343842 
	C1542.406128,255.332214 1545.214844,254.008148 1546.605469,254.220566 
	C1570.447998,257.862274 1594.251587,261.757965 1618.075317,265.524811 
	C1636.321289,268.409729 1654.577881,271.230865 1672.845947,273.972290 
	C1675.091919,274.309326 1678.504761,275.542419 1678.688354,271.754150 
	C1678.764648,270.181641 1676.213745,268.481720 1674.092773,265.913910 
	C1675.493042,262.959991 1677.527588,258.634857 1679.590576,254.323364 
	C1683.396851,246.368759 1687.345825,238.478943 1690.968994,230.442017 
	C1692.281372,227.530579 1694.022217,226.268967 1697.207520,225.868378 
	C1704.096680,225.002014 1710.923828,223.641739 1719.124756,222.255524 
	C1744.489014,324.145447 1769.941162,426.388824 1795.614624,529.521423 
	C1848.453003,436.311584 1900.903198,343.786224 1953.583618,250.854935 
	C1960.486328,257.884827 1969.071289,260.889191 1978.611938,261.559875 
	C1979.104248,261.594513 1979.645508,261.956940 1980.065308,261.832855 
	C1982.532104,261.103577 1984.969727,260.275024 1987.417114,259.479980 
	C1985.199463,258.991882 1982.984985,258.105377 1980.763672,258.088593 
	C1973.427368,258.033051 1966.902222,255.830322 1960.697632,251.976532 
	C1956.140503,249.146011 1955.302734,246.070862 1958.601929,241.848145 
	C1959.468018,240.739517 1960.219238,239.541031 1961.767090,237.312866 
	C1963.387207,247.467392 1970.702759,247.860733 1977.622559,248.865295 
	C1983.197144,249.674545 1988.760132,250.620529 1994.362183,251.142075 
	C1995.797485,251.275696 1998.096802,250.465424 1998.748901,249.354660 
	C2003.997070,240.416595 2006.028687,230.648727 2004.778442,220.371841 
	C2004.605225,218.946732 2002.531616,217.256958 2000.958496,216.606110 
	C1998.112793,215.428665 1994.981079,214.942490 1991.338867,214.005676 
	C1993.767700,207.856934 1996.075684,202.013702 1998.365356,196.216827 
	C2050.954102,196.216827 2103.394287,196.216827 2155.775146,196.216827 
	C2120.503906,396.820801 2085.267578,597.224426 2050.001709,797.797119 
	C2003.725830,797.797119 1957.611572,797.797119 1910.780273,797.797119 
	C1931.928467,677.923035 1953.047241,558.216248 1974.166016,438.509460 
	C1973.821045,438.394989 1973.476074,438.280548 1973.131226,438.166077 
	C1937.087769,502.276855 1901.044312,566.387634 1864.730591,630.765869 
z"/>
<path fill="#FFFFFF" opacity="1.000000" stroke="none" 
	d="
M550.988892,528.102905 
	C549.313354,538.482971 547.719971,548.877197 545.939941,559.239380 
	C544.051697,570.231567 542.010254,581.197754 539.992615,592.167297 
	C536.688904,610.128967 533.257446,628.067871 530.080139,646.051758 
	C529.061462,651.817444 528.365906,657.679932 528.081665,663.525330 
	C527.754395,670.254639 530.621948,672.953796 537.497803,672.980896 
	C552.828613,673.041199 568.159851,672.999817 583.490906,672.999817 
	C612.153320,672.999817 640.816528,672.875977 669.477783,673.058350 
	C681.587097,673.135498 685.446960,665.931152 686.890930,658.322937 
	C689.908203,642.424438 692.300232,626.408142 695.023254,610.452759 
	C696.955078,599.133423 698.994385,587.832275 701.018677,576.528870 
	C701.420288,574.286621 702.238831,572.913452 705.145081,572.920959 
	C751.304504,573.039734 797.464233,573.012695 843.623901,573.030640 
	C843.933838,573.030762 844.243835,573.194397 845.141479,573.447205 
	C844.431885,578.104675 843.798584,582.851501 842.973328,587.564697 
	C840.686218,600.625793 838.379822,613.684021 835.967163,626.722290 
	C833.380554,640.700806 830.920898,654.710327 827.936951,668.605591 
	C824.561951,684.321594 821.712952,700.267944 816.737000,715.493713 
	C810.164185,735.606140 798.955688,753.434631 782.866943,767.473022 
	C766.537354,781.721558 747.368103,790.165100 725.906738,794.171387 
	C704.984741,798.077087 683.975952,797.979736 662.906738,797.989685 
	C600.416016,798.019165 537.922729,798.319397 475.436066,797.817932 
	C455.027496,797.654114 434.600067,795.624268 415.849915,786.004578 
	C397.318787,776.497253 386.236267,761.262756 380.994354,741.396912 
	C377.724121,729.003479 377.149170,716.302124 378.190430,703.714233 
	C379.217285,691.300110 381.744019,679.005798 383.714844,666.675232 
	C385.401337,656.123535 387.194336,645.588318 389.010498,635.057983 
	C390.796875,624.700073 392.685364,614.359924 394.503906,604.007568 
	C396.351776,593.487976 398.183350,582.965454 399.995422,572.439575 
	C401.780151,562.072693 403.499664,551.694519 405.306274,541.331482 
	C407.167328,530.656189 409.121338,519.997070 410.993164,509.323547 
	C412.809784,498.964874 414.558960,488.594421 416.364838,478.233826 
	C418.226074,467.555908 420.125916,456.884735 421.997925,446.208679 
	C423.813812,435.852478 425.618225,425.494232 427.423431,415.136139 
	C429.284882,404.455505 431.130493,393.772125 433.002686,383.093353 
	C434.817871,372.739777 436.677399,362.393890 438.481903,352.038452 
	C440.343506,341.355225 442.389923,330.697754 443.954041,319.970459 
	C447.615326,294.859528 454.865753,270.900787 468.417267,249.383377 
	C479.374420,231.985321 494.395142,218.369614 513.105408,209.563553 
	C525.921021,203.531845 539.408081,198.924469 553.733154,198.061401 
	C569.381836,197.118591 585.058533,196.138565 600.725769,196.090714 
	C669.714844,195.879929 738.708008,195.637726 807.692871,196.217819 
	C828.693542,196.394424 849.094849,201.062866 866.632874,213.966064 
	C879.794800,223.649628 887.834473,236.879532 890.764465,252.607101 
	C892.941284,264.291840 893.157166,276.361420 893.909363,288.280884 
	C894.154114,292.159393 893.333862,296.105133 892.678833,300.652771 
	C890.303162,302.198303 888.333130,303.510834 886.182556,303.961395 
	C867.513306,307.872925 848.786743,311.512421 830.125671,315.461304 
	C805.139282,320.748657 780.204956,326.281342 755.224854,331.598602 
	C751.525146,332.386078 747.696899,332.570099 743.961243,332.600372 
	C744.005249,325.058533 742.244202,321.712616 737.714661,321.062469 
	C733.680054,320.483307 729.583862,320.053406 725.513733,320.044739 
	C689.568420,319.968109 653.622803,319.955414 617.677551,320.045013 
	C611.772156,320.059753 605.855103,320.515381 599.966675,321.032074 
	C590.167053,321.891876 586.306702,326.478546 584.896545,336.496338 
	C583.118774,349.125458 580.570679,361.645752 578.376160,374.216736 
	C576.513306,384.888184 574.680542,395.564850 572.543335,406.023865 
	C569.106689,398.159790 565.844360,390.556030 562.877075,382.838806 
	C561.795898,380.026978 560.550598,378.902802 557.378235,379.652588 
	C550.109192,381.370667 542.758423,382.744049 535.436829,384.237793 
	C533.028809,384.729065 530.608582,385.160065 527.749573,385.702972 
	C528.129150,387.710632 528.231934,389.369293 528.760498,390.878906 
	C534.579163,407.497101 540.472107,424.089264 546.322144,440.696472 
	C547.171692,443.108185 546.956055,444.817322 543.774170,445.242096 
	C536.349670,446.233215 528.976685,447.652527 521.533997,448.430573 
	C520.047058,448.585999 517.606323,447.041199 516.871460,445.623932 
	C514.305420,440.675323 512.298767,435.437012 510.071167,430.312408 
	C503.104187,414.284882 496.204163,398.227203 489.047913,382.284607 
	C488.378021,380.792206 485.920044,378.910095 484.564117,379.104553 
	C472.536346,380.829346 460.572998,383.000275 448.583466,384.996674 
	C445.213226,385.557861 445.197510,387.420807 446.286926,390.040588 
	C450.585907,400.378998 454.766388,410.766754 459.080231,421.098846 
	C465.851624,437.317078 472.720795,453.494537 479.475983,469.719452 
	C480.311279,471.725739 481.055176,473.980011 477.703522,474.741669 
	C473.179840,475.769623 468.715424,477.083008 464.165375,477.962555 
	C460.409943,478.688538 458.320679,480.666901 457.679565,484.420532 
	C455.782410,495.527954 458.440857,506.241394 460.915833,516.849060 
	C462.160156,522.182068 464.947327,527.193787 467.338104,532.207092 
	C468.990479,535.671997 471.667603,537.050964 475.891510,536.289001 
	C488.997070,533.924927 502.157471,531.824951 515.347717,529.989563 
	C520.659302,529.250427 523.934509,526.997009 526.257202,522.021973 
	C529.727783,514.588074 533.140076,506.771942 543.125793,505.623871 
	C547.396179,505.132843 551.551880,503.644653 556.014343,502.546967 
	C555.385864,505.654236 555.366028,508.064606 554.423584,510.033386 
	C548.698242,521.994568 540.267700,531.774414 529.108398,538.886536 
	C518.177429,545.853149 506.086945,548.552185 493.063812,547.334473 
	C491.129028,547.153564 488.999512,549.055420 486.960083,549.993774 
	C488.535858,551.087524 490.068420,553.060242 491.694000,553.140198 
	C509.459991,554.013733 526.125183,550.869324 539.934204,538.575500 
	C543.723511,535.201965 547.309570,531.600037 550.988892,528.102905 
z"/>
<path fill="#FFFEFE" opacity="1.000000" stroke="none" 
	d="
M1413.015137,221.010193 
	C1423.687256,233.749954 1429.392944,248.377090 1431.138794,264.955536 
	C1432.843140,281.139191 1431.789429,297.032501 1429.062744,312.961090 
	C1426.248047,329.403503 1423.830566,345.914520 1420.954102,362.345581 
	C1418.167969,378.260254 1414.908936,394.091675 1412.059204,409.995819 
	C1408.919922,427.516602 1406.019531,445.080170 1402.998169,462.622192 
	C1399.545532,482.669250 1394.410645,502.286102 1384.849609,520.309814 
	C1372.496582,543.596558 1354.835327,561.830933 1330.179810,572.169189 
	C1321.361328,575.866882 1311.898926,578.028748 1302.513184,580.959351 
	C1323.399048,652.424744 1344.479858,724.557007 1365.717163,797.225098 
	C1364.387085,797.463196 1362.884766,797.965759 1361.381958,797.967163 
	C1316.555664,798.008911 1271.729248,797.969116 1226.903198,798.072449 
	C1223.892090,798.079407 1222.763062,797.123535 1221.913818,794.281006 
	C1212.366211,762.327087 1202.697876,730.408936 1192.987427,698.504028 
	C1183.464478,667.215515 1173.840454,635.957886 1164.302002,604.674072 
	C1162.951904,600.246216 1161.836060,595.747009 1160.574219,591.143005 
	C1132.963745,591.143005 1105.329346,591.143005 1077.117554,591.143005 
	C1075.758423,598.601929 1074.369507,606.165283 1073.003662,613.732849 
	C1070.821533,625.823853 1068.653076,637.917358 1066.481934,650.010315 
	C1064.652710,660.198547 1062.794067,670.381653 1061.010742,680.577881 
	C1059.198364,690.939819 1057.523926,701.325989 1055.675781,711.681396 
	C1053.858521,721.862610 1051.874634,732.013855 1050.008545,742.186462 
	C1047.733643,754.587524 1045.465454,766.990234 1043.276367,779.406616 
	C1042.403809,784.356384 1041.770996,789.348022 1040.989258,794.314331 
	C1040.637329,796.549133 1039.909546,798.066101 1037.013672,798.060791 
	C990.537720,797.976013 944.061462,798.001038 896.805054,798.001038 
	C897.693848,792.194336 898.456177,786.674622 899.395569,781.185303 
	C901.550964,768.591064 903.781799,756.009766 906.002197,743.426758 
	C908.419250,729.729309 910.855347,716.035339 913.290588,702.341125 
	C915.187561,691.673279 917.073364,681.003357 919.004639,670.341736 
	C921.972473,653.957947 925.074463,637.597778 927.934570,621.195374 
	C930.743530,605.085754 933.217651,588.917725 936.032471,572.809204 
	C938.508362,558.640564 941.377930,544.540710 943.840271,530.369934 
	C946.057922,517.607056 947.958984,504.789124 950.344604,491.429077 
	C958.634399,491.909546 966.558105,493.192963 974.532837,493.906494 
	C978.698608,494.279205 980.908875,496.203461 982.606140,499.807037 
	C989.696350,514.859558 996.985657,529.818176 1004.183777,544.819946 
	C1007.063232,550.821045 1009.895874,556.844727 1012.944153,563.267517 
	C1010.727600,563.856445 1009.492737,564.320068 1008.217834,564.498596 
	C1004.041016,565.083130 1003.063782,567.657593 1003.929993,571.311829 
	C1005.099487,576.245056 1009.009583,574.828186 1012.050537,574.365051 
	C1040.037354,570.102905 1068.010132,565.745605 1095.970459,561.312073 
	C1165.704712,550.254883 1235.395264,538.911987 1305.189331,528.247620 
	C1319.219727,526.103821 1330.778076,520.846619 1340.136353,510.367432 
	C1345.229126,504.664703 1348.800293,498.212219 1350.416626,490.706268 
	C1351.178589,487.167450 1349.797852,484.272736 1346.427979,483.995026 
	C1344.659790,483.849304 1342.556519,486.369507 1340.823608,487.929108 
	C1340.190430,488.498901 1340.270874,489.805939 1339.890137,490.720215 
	C1334.237061,504.299011 1324.681152,513.621277 1310.052368,516.648926 
	C1300.119507,518.704773 1290.018066,519.974426 1279.961304,521.374756 
	C1278.394897,521.592834 1275.886597,521.180908 1275.136353,520.122742 
	C1270.482666,513.557800 1266.206665,506.725098 1261.677368,499.785217 
	C1263.120361,498.712158 1264.177002,497.966492 1265.190674,497.166321 
	C1272.540161,491.364746 1278.048706,484.273987 1280.697144,475.147369 
	C1281.668823,471.799164 1281.119751,468.950348 1277.563110,467.889984 
	C1273.872681,466.789795 1271.760132,468.531525 1270.797363,472.384399 
	C1269.069336,479.299744 1264.694702,484.481537 1258.842285,488.354431 
	C1257.714600,489.100739 1254.989868,489.560913 1254.658447,489.059143 
	C1250.797119,483.211304 1247.253418,477.153656 1244.080200,471.081421 
	C1253.418701,471.498260 1257.343262,467.247467 1258.584595,462.558655 
	C1260.964966,453.567261 1262.270508,444.291412 1264.348877,434.993958 
	C1265.790649,433.920898 1266.786133,432.764221 1268.041016,432.091522 
	C1274.469849,428.645660 1281.129761,425.603485 1287.407593,421.908295 
	C1307.608276,410.018005 1324.833252,394.921448 1337.111450,374.654785 
	C1341.495605,367.418243 1341.196777,362.633026 1335.268677,357.377838 
	C1327.181152,350.208191 1319.012085,343.105377 1310.547607,336.390533 
	C1275.670654,308.722595 1235.345581,297.838470 1191.517822,299.546082 
	C1173.957886,300.230255 1156.468018,303.151489 1139.000854,305.465302 
	C1134.864380,306.013245 1132.711060,305.389069 1130.039429,301.844635 
	C1125.311890,295.572784 1119.575684,290.018738 1113.911621,284.525208 
	C1112.496338,283.152527 1109.631836,282.359589 1107.628540,282.649384 
	C1088.182007,285.462769 1068.775269,288.553436 1049.361084,291.589478 
	C1044.520874,292.346405 1039.694580,293.191559 1034.572754,294.044312 
	C1033.968628,290.317444 1033.501465,287.435120 1032.973755,284.179565 
	C1035.728516,283.832428 1037.999878,283.427490 1040.287842,283.277252 
	C1054.999268,282.310852 1069.715942,281.426819 1084.427246,280.457581 
	C1089.887451,280.097809 1095.331177,279.477234 1100.793091,279.156525 
	C1114.525635,278.350220 1128.272217,277.766357 1141.998413,276.869171 
	C1156.037354,275.951599 1170.052856,274.674438 1184.089966,273.725739 
	C1198.471313,272.753784 1212.872314,272.076599 1227.253906,271.108795 
	C1241.324097,270.161926 1255.375977,268.943787 1269.444214,267.966492 
	C1289.167969,266.596313 1308.901245,265.364624 1328.626709,264.018433 
	C1335.031006,263.581360 1341.423706,262.970856 1347.718872,262.448242 
	C1348.658813,257.992554 1346.198975,257.360870 1343.241821,257.562317 
	C1334.164673,258.180603 1325.094727,258.906281 1316.023071,259.603668 
	C1301.813599,260.696075 1287.612793,261.915619 1273.394043,262.869568 
	C1254.732544,264.121552 1236.054565,265.126678 1217.388672,266.315338 
	C1201.326172,267.338226 1185.268799,268.443665 1169.212524,269.559387 
	C1147.524414,271.066467 1125.839233,272.614227 1104.153320,274.152100 
	C1085.771973,275.455566 1067.391479,276.769684 1048.980225,277.726349 
	C1048.997925,276.669189 1049.046021,275.964752 1049.406494,275.178833 
	C1050.147949,275.083191 1050.577148,275.068970 1051.214355,275.299469 
	C1052.659058,275.170044 1053.895752,274.795929 1055.443481,274.336609 
	C1056.182495,274.248749 1056.610596,274.246063 1057.272339,274.481018 
	C1059.055298,274.325775 1060.604492,273.932953 1062.458984,273.434723 
	C1063.192261,273.316711 1063.620483,273.304108 1064.294922,273.525635 
	C1066.704834,273.306580 1068.868164,272.853363 1071.351318,272.293427 
	C1072.118286,272.169891 1072.565552,272.153015 1073.214111,272.356567 
	C1074.953979,272.183929 1076.492676,271.790894 1078.447510,271.281219 
	C1102.538696,267.462463 1126.203491,263.692657 1149.890869,260.070679 
	C1227.699219,248.173172 1305.510132,236.292343 1383.336182,224.511154 
	C1393.180176,223.020996 1403.119873,222.161774 1413.015137,221.010193 
z"/>
<path fill="#F81C0F" opacity="1.000000" stroke="none" 
	d="
M1051.006226,275.054749 
	C1050.577148,275.068970 1050.147949,275.083191 1048.984375,275.098175 
	C1043.133423,275.892731 1038.016846,276.686523 1032.900269,277.480347 
	C1033.001831,278.144470 1033.103394,278.808594 1033.204956,279.472717 
	C1038.473511,279.008179 1043.742065,278.543610 1049.010620,278.079071 
	C1067.391479,276.769684 1085.771973,275.455566 1104.153320,274.152100 
	C1125.839233,272.614227 1147.524414,271.066467 1169.212524,269.559387 
	C1185.268799,268.443665 1201.326172,267.338226 1217.388672,266.315338 
	C1236.054565,265.126678 1254.732544,264.121552 1273.394043,262.869568 
	C1287.612793,261.915619 1301.813599,260.696075 1316.023071,259.603668 
	C1325.094727,258.906281 1334.164673,258.180603 1343.241821,257.562317 
	C1346.198975,257.360870 1348.658813,257.992554 1347.718872,262.448242 
	C1341.423706,262.970856 1335.031006,263.581360 1328.626709,264.018433 
	C1308.901245,265.364624 1289.167969,266.596313 1269.444214,267.966492 
	C1255.375977,268.943787 1241.324097,270.161926 1227.253906,271.108795 
	C1212.872314,272.076599 1198.471313,272.753784 1184.089966,273.725739 
	C1170.052856,274.674438 1156.037354,275.951599 1141.998413,276.869171 
	C1128.272217,277.766357 1114.525635,278.350220 1100.793091,279.156525 
	C1095.331177,279.477234 1089.887451,280.097809 1084.427246,280.457581 
	C1069.715942,281.426819 1054.999268,282.310852 1040.287842,283.277252 
	C1037.999878,283.427490 1035.728516,283.832428 1032.973755,284.179565 
	C1033.501465,287.435120 1033.968628,290.317444 1034.572754,294.044312 
	C1039.694580,293.191559 1044.520874,292.346405 1049.361084,291.589478 
	C1068.775269,288.553436 1088.182007,285.462769 1107.628540,282.649384 
	C1109.631836,282.359589 1112.496338,283.152527 1113.911621,284.525208 
	C1119.575684,290.018738 1125.311890,295.572784 1130.039429,301.844635 
	C1132.711060,305.389069 1134.864380,306.013245 1139.000854,305.465302 
	C1156.468018,303.151489 1173.957886,300.230255 1191.517822,299.546082 
	C1235.345581,297.838470 1275.670654,308.722595 1310.547607,336.390533 
	C1319.012085,343.105377 1327.181152,350.208191 1335.268677,357.377838 
	C1341.196777,362.633026 1341.495605,367.418243 1337.111450,374.654785 
	C1324.833252,394.921448 1307.608276,410.018005 1287.407593,421.908295 
	C1281.129761,425.603485 1274.469849,428.645660 1268.041016,432.091522 
	C1266.786133,432.764221 1265.790649,433.920898 1263.988525,435.043640 
	C1251.644897,439.629120 1239.988403,444.025238 1228.005981,448.544220 
	C1233.315308,456.228668 1238.470459,463.690155 1243.625610,471.151611 
	C1247.253418,477.153656 1250.797119,483.211304 1254.658447,489.059143 
	C1254.989868,489.560913 1257.714600,489.100739 1258.842285,488.354431 
	C1264.694702,484.481537 1269.069336,479.299744 1270.797363,472.384399 
	C1271.760132,468.531525 1273.872681,466.789795 1277.563110,467.889984 
	C1281.119751,468.950348 1281.668823,471.799164 1280.697144,475.147369 
	C1278.048706,484.273987 1272.540161,491.364746 1265.190674,497.166321 
	C1264.177002,497.966492 1263.120361,498.712158 1261.677368,499.785217 
	C1266.206665,506.725098 1270.482666,513.557800 1275.136353,520.122742 
	C1275.886597,521.180908 1278.394897,521.592834 1279.961304,521.374756 
	C1290.018066,519.974426 1300.119507,518.704773 1310.052368,516.648926 
	C1324.681152,513.621277 1334.237061,504.299011 1339.890137,490.720215 
	C1340.270874,489.805939 1340.190430,488.498901 1340.823608,487.929108 
	C1342.556519,486.369507 1344.659790,483.849304 1346.427979,483.995026 
	C1349.797852,484.272736 1351.178589,487.167450 1350.416626,490.706268 
	C1348.800293,498.212219 1345.229126,504.664703 1340.136353,510.367432 
	C1330.778076,520.846619 1319.219727,526.103821 1305.189331,528.247620 
	C1235.395264,538.911987 1165.704712,550.254883 1095.970459,561.312073 
	C1068.010132,565.745605 1040.037354,570.102905 1012.050537,574.365051 
	C1009.009583,574.828186 1005.099487,576.245056 1003.929993,571.311829 
	C1003.063782,567.657593 1004.041016,565.083130 1008.217834,564.498596 
	C1009.492737,564.320068 1010.727600,563.856445 1012.944153,563.267517 
	C1009.895874,556.844727 1007.063232,550.821045 1004.183777,544.819946 
	C996.985657,529.818176 989.696350,514.859558 982.606140,499.807037 
	C980.908875,496.203461 978.698608,494.279205 974.532837,493.906494 
	C966.558105,493.192963 958.634399,491.909546 950.348267,490.998077 
	C936.363708,488.325531 922.638977,485.855286 909.105286,482.592285 
	C899.892761,480.371124 890.641846,477.745941 881.976562,473.990051 
	C874.592468,470.789520 872.431519,462.572693 869.085571,455.868561 
	C865.172302,448.027832 861.758118,439.939453 858.027832,432.005341 
	C856.110840,427.928040 853.549866,426.856445 848.998840,429.069275 
	C845.309509,430.863190 840.827271,431.014618 836.705383,431.933350 
	C827.201294,434.051788 817.687500,436.129639 808.205566,438.343445 
	C797.629089,440.812775 787.080322,443.401367 776.525269,445.961700 
	C765.076843,448.738678 753.644836,451.584045 742.187256,454.322601 
	C732.640503,456.604340 723.026733,458.616211 713.516418,461.037537 
	C703.308411,463.636566 693.196472,466.611145 683.024658,469.355103 
	C668.874084,473.172333 654.698120,476.895203 640.549805,480.720398 
	C630.808350,483.354065 621.129272,486.223846 611.359619,488.745361 
	C602.621399,491.000702 593.771362,492.820526 585.021851,495.034821 
	C580.321777,496.224274 575.345642,497.159088 571.216370,499.488953 
	C568.205139,501.188019 566.101990,504.799469 564.073608,507.874695 
	C559.761108,514.412964 555.761169,521.157410 551.310974,527.960083 
	C547.309570,531.600037 543.723511,535.201965 539.934204,538.575500 
	C526.125183,550.869324 509.459991,554.013733 491.694000,553.140198 
	C490.068420,553.060242 488.535858,551.087524 486.960083,549.993774 
	C488.999512,549.055420 491.129028,547.153564 493.063812,547.334473 
	C506.086945,548.552185 518.177429,545.853149 529.108398,538.886536 
	C540.267700,531.774414 548.698242,521.994568 554.423584,510.033386 
	C555.366028,508.064606 555.385864,505.654236 556.014343,502.546967 
	C551.551880,503.644653 547.396179,505.132843 543.125793,505.623871 
	C533.140076,506.771942 529.727783,514.588074 526.257202,522.021973 
	C523.934509,526.997009 520.659302,529.250427 515.347717,529.989563 
	C502.157471,531.824951 488.997070,533.924927 475.891510,536.289001 
	C471.667603,537.050964 468.990479,535.671997 467.338104,532.207092 
	C464.947327,527.193787 462.160156,522.182068 460.915833,516.849060 
	C458.440857,506.241394 455.782410,495.527954 457.679565,484.420532 
	C458.320679,480.666901 460.409943,478.688538 464.165375,477.962555 
	C468.715424,477.083008 473.179840,475.769623 477.703522,474.741669 
	C481.055176,473.980011 480.311279,471.725739 479.475983,469.719452 
	C472.720795,453.494537 465.851624,437.317078 459.080231,421.098846 
	C454.766388,410.766754 450.585907,400.378998 446.286926,390.040588 
	C445.197510,387.420807 445.213226,385.557861 448.583466,384.996674 
	C460.572998,383.000275 472.536346,380.829346 484.564117,379.104553 
	C485.920044,378.910095 488.378021,380.792206 489.047913,382.284607 
	C496.204163,398.227203 503.104187,414.284882 510.071167,430.312408 
	C512.298767,435.437012 514.305420,440.675323 516.871460,445.623932 
	C517.606323,447.041199 520.047058,448.585999 521.533997,448.430573 
	C528.976685,447.652527 536.349670,446.233215 543.774170,445.242096 
	C546.956055,444.817322 547.171692,443.108185 546.322144,440.696472 
	C540.472107,424.089264 534.579163,407.497101 528.760498,390.878906 
	C528.231934,389.369293 528.129150,387.710632 527.749573,385.702972 
	C530.608582,385.160065 533.028809,384.729065 535.436829,384.237793 
	C542.758423,382.744049 550.109192,381.370667 557.378235,379.652588 
	C560.550598,378.902802 561.795898,380.026978 562.877075,382.838806 
	C565.844360,390.556030 569.106689,398.159790 572.761230,406.322510 
	C574.834167,410.705383 576.353394,414.592987 577.971313,418.439087 
	C581.517334,426.868927 585.357788,435.186188 588.561523,443.742859 
	C589.747986,446.911743 591.898987,446.374756 593.596985,445.869141 
	C600.430542,443.834229 607.086121,441.203003 613.916016,439.154175 
	C625.586243,435.653381 637.313477,432.335175 649.062378,429.106262 
	C661.762634,425.615906 674.560669,422.476562 687.232971,418.890533 
	C701.832275,414.759216 716.340698,410.306641 731.141602,406.214539 
	C733.607056,405.842804 735.825989,405.272858 738.031006,404.653870 
	C753.826660,400.220032 769.624695,395.794922 785.411743,391.330719 
	C805.936951,385.526733 826.488464,379.810089 846.936035,373.743744 
	C850.234741,372.765076 853.549316,370.663849 856.000122,368.221985 
	C863.615295,360.634705 870.441528,351.993164 882.830933,352.771484 
	C883.247742,352.797699 883.696350,352.318298 884.534607,352.046936 
	C898.775696,349.742188 912.612366,347.465027 926.876587,345.117493 
	C927.152649,344.012482 927.898071,342.310791 927.950256,340.588135 
	C928.134705,334.496033 927.815247,328.375763 928.293152,322.313934 
	C928.424438,320.649261 930.387512,318.681824 932.018921,317.693115 
	C934.171692,316.388397 936.793213,315.794098 939.270691,315.099548 
	C948.563843,312.494354 957.847168,309.841858 967.200745,307.469330 
	C972.696838,306.075287 978.318481,305.176025 984.315247,304.105591 
	C992.391663,302.586060 1000.021423,300.937256 1007.685242,299.465393 
	C1015.912292,297.885315 1016.208984,297.528381 1014.090759,289.494141 
	C1013.809570,288.427429 1013.415894,287.390350 1012.822388,285.564331 
	C1003.278076,289.113342 994.055054,292.542908 984.487366,296.101135 
	C977.093811,298.322510 970.013672,300.316315 963.003296,302.531036 
	C952.284485,305.917297 941.635254,309.523712 930.915833,312.907928 
	C922.825073,315.462219 914.649963,317.748566 906.551636,320.279694 
	C900.640869,322.127075 894.794006,324.178680 888.527344,326.130676 
	C887.154114,326.273468 886.132202,326.298553 885.196350,326.595184 
	C871.445374,330.953552 857.710388,335.362335 843.962585,339.730682 
	C824.049805,346.057922 804.127380,352.354370 784.213806,358.678986 
	C771.588989,362.688721 758.997559,366.807739 746.317993,370.635284 
	C744.913818,371.059174 743.028564,369.889313 741.366394,369.458557 
	C742.398438,368.224670 743.200195,366.299622 744.499207,365.866821 
	C754.386597,362.572723 764.375427,359.584015 774.324402,356.473602 
	C791.515198,351.099030 808.706970,345.727203 825.885376,340.313263 
	C841.962036,335.246552 858.042603,330.190308 874.077820,324.994904 
	C879.516174,323.232880 884.821594,321.060425 890.521118,318.888794 
	C894.534607,317.707764 898.271057,316.883667 901.884155,315.686981 
	C912.275391,312.245300 922.565430,308.492340 932.990845,305.160858 
	C945.972168,301.012543 959.049072,297.163269 972.343384,293.426331 
	C980.045349,292.951263 986.691223,290.028809 993.165527,286.496490 
	C988.303162,286.662598 983.639709,287.478210 979.040833,288.566437 
	C977.644165,288.896912 976.425598,289.979950 974.730225,290.830017 
	C968.448914,292.178467 962.554871,293.378601 956.678650,294.660309 
	C947.061523,296.757904 937.461365,298.932831 927.843384,301.026428 
	C923.097534,302.059479 918.334900,303.019440 913.567444,303.948700 
	C906.389771,305.347839 899.201172,306.691071 891.606567,307.987854 
	C886.665344,308.924683 882.147278,309.992401 877.601990,310.927979 
	C860.541992,314.439362 843.456177,317.826263 826.411743,321.410889 
	C799.954956,326.975006 773.518188,332.634857 747.098022,338.369690 
	C745.567200,338.701935 744.260864,340.067841 742.425903,340.957886 
	C730.321777,343.131683 718.599182,345.097290 706.974182,347.529083 
	C696.480042,349.724396 686.127136,352.588379 675.648254,354.864655 
	C665.512634,357.066437 655.297974,358.905396 645.114136,360.883789 
	C634.931763,362.861877 624.744629,364.815308 614.232544,366.842621 
	C614.232544,364.320557 614.232544,362.547546 614.232544,360.797699 
	C622.309937,358.848236 630.169312,356.756989 638.116577,355.083282 
	C647.674255,353.070404 657.348328,351.605835 666.895752,349.549652 
	C677.512939,347.263123 688.010559,344.423859 698.622559,342.110718 
	C708.589661,339.938141 718.640808,338.152771 728.649231,336.167664 
	C733.748840,335.156189 738.835571,334.080200 743.928162,333.033325 
	C747.696899,332.570099 751.525146,332.386078 755.224854,331.598602 
	C780.204956,326.281342 805.139282,320.748657 830.125671,315.461304 
	C848.786743,311.512421 867.513306,307.872925 886.182556,303.961395 
	C888.333130,303.510834 890.303162,302.198303 892.682129,301.106323 
	C898.602112,299.940857 904.206604,299.006836 909.789490,297.957336 
	C921.942688,295.672699 934.094910,293.380096 946.227417,290.988617 
	C952.429993,289.766022 958.597900,288.362122 964.765564,286.969604 
	C971.899597,285.358917 979.015991,283.670624 986.968262,282.103912 
	C990.231323,281.735199 992.697021,281.401398 995.095825,280.800476 
	C1004.887939,278.347351 1014.614502,275.610016 1024.461792,273.410187 
	C1028.259033,272.561920 1032.362183,273.186066 1036.243896,272.597931 
	C1091.047485,264.294586 1145.832275,255.867813 1200.630859,247.531799 
	C1261.845337,238.219788 1323.074341,229.001251 1384.282959,219.650772 
	C1391.599609,218.533051 1398.828979,216.844025 1406.098877,215.419830 
	C1421.577881,212.965042 1437.054810,210.497604 1452.539795,208.081635 
	C1453.670532,207.905212 1455.063354,207.726105 1455.970825,208.218323 
	C1457.148804,208.857300 1458.474243,210.052582 1458.741333,211.233414 
	C1458.902222,211.944824 1457.314941,213.675476 1456.267456,213.927689 
	C1451.850586,214.991180 1447.354614,215.755341 1442.862915,216.474045 
	C1433.206665,218.019135 1423.535034,219.468521 1413.442383,220.983643 
	C1403.119873,222.161774 1393.180176,223.020996 1383.336182,224.511154 
	C1305.510132,236.292343 1227.699219,248.173172 1149.890869,260.070679 
	C1126.203491,263.692657 1102.538696,267.462463 1078.087280,271.159546 
	C1075.878296,271.481720 1074.445557,271.808929 1073.012939,272.136139 
	C1072.565552,272.153015 1072.118286,272.169891 1070.953979,272.158600 
	C1068.174194,272.517487 1066.111450,272.904510 1064.048584,273.291504 
	C1063.620483,273.304108 1063.192261,273.316711 1062.087646,273.304993 
	C1059.953735,273.601562 1058.496094,273.922485 1057.038574,274.243378 
	C1056.610596,274.246063 1056.182495,274.248749 1055.091431,274.228149 
	C1053.287598,274.488159 1052.146973,274.771454 1051.006226,275.054749 
M1154.124512,471.549286 
	C1154.474976,469.432068 1154.825439,467.314850 1155.260132,464.688354 
	C1152.189453,465.220917 1150.113403,465.522186 1148.062744,465.946594 
	C1138.696167,467.885132 1129.336670,469.858215 1119.065918,471.929291 
	C1106.298706,473.740997 1093.531494,475.552734 1080.190186,477.445923 
	C1081.421509,481.474457 1082.226562,484.108643 1083.116211,487.019470 
	C1106.811768,482.032532 1130.172485,477.116028 1154.124512,471.549286 
M1262.111694,317.367126 
	C1252.478027,311.390472 1232.145020,307.218964 1224.869019,310.540131 
	C1230.735596,313.328857 1235.852783,315.761353 1241.276978,318.809021 
	C1241.999146,319.477356 1242.617432,320.344635 1243.459106,320.784424 
	C1258.086060,328.427734 1269.632568,339.432953 1278.995850,353.754547 
	C1282.499512,362.250610 1286.003174,370.746674 1289.673706,379.647095 
	C1302.291138,374.603638 1315.052002,369.502808 1328.545410,364.109192 
	C1327.179321,361.794952 1326.412109,359.764221 1325.043457,358.293091 
	C1314.541504,347.005768 1301.897217,338.459198 1288.836060,330.492249 
	C1287.019165,329.384003 1284.867188,328.825165 1282.162842,327.959045 
	C1275.456299,324.624939 1268.749756,321.290833 1262.111694,317.367126 
M1121.318970,334.615753 
	C1115.722046,334.790344 1110.084717,334.604675 1104.537720,335.225281 
	C1096.544678,336.119629 1092.744385,340.163361 1092.174805,348.267670 
	C1091.209839,361.996399 1095.472778,374.432983 1102.665649,385.884125 
	C1104.983398,389.573883 1108.240356,392.673645 1111.654297,396.356628 
	C1115.118164,400.123260 1118.219604,404.336548 1122.150757,407.527496 
	C1125.881836,410.556000 1130.250977,413.860016 1134.752686,414.631104 
	C1141.692993,415.819946 1149.062500,415.599823 1156.107056,414.768158 
	C1162.835083,413.973816 1168.709351,410.479370 1170.947021,403.470947 
	C1173.810059,394.503998 1172.238281,385.380737 1168.420898,377.324219 
	C1164.544800,369.143616 1159.170776,361.517639 1153.524414,354.383545 
	C1149.524048,349.329346 1144.454590,344.730011 1138.985229,341.344879 
	C1133.960449,338.234985 1127.762451,337.020660 1121.318970,334.615753 
M1163.370361,472.319977 
	C1163.693970,474.946625 1163.844849,477.609344 1164.383911,480.191040 
	C1165.092407,483.584137 1166.710815,485.215393 1170.720703,483.970123 
	C1175.463379,482.497253 1180.434448,481.635498 1185.369751,480.998779 
	C1186.550781,480.846375 1187.981934,482.633850 1189.298096,483.529175 
	C1188.262573,484.729248 1187.403076,486.737274 1186.165039,487.006958 
	C1170.237061,490.475708 1154.264771,493.743774 1138.284302,496.966736 
	C1121.487793,500.354248 1104.679443,503.685760 1087.857666,506.945526 
	C1080.664795,508.339355 1073.441650,509.609589 1066.189697,510.634247 
	C1064.954956,510.808685 1063.504761,509.456299 1062.153931,508.809265 
	C1062.813110,507.575378 1063.196533,505.985443 1064.206055,505.204163 
	C1065.296509,504.360107 1066.949707,504.159088 1068.396362,503.875763 
	C1072.096191,503.151093 1075.817627,502.536591 1080.175903,501.763519 
	C1078.056641,493.854156 1076.119507,486.624512 1074.123657,479.175659 
	C1051.631592,483.554382 1029.972778,487.770874 1008.175903,492.014252 
	C1012.882996,502.781525 1017.535706,513.018372 1021.811768,523.410156 
	C1023.468506,527.436401 1025.512207,528.591431 1029.973755,527.869385 
	C1080.615723,519.674011 1131.297119,511.722778 1181.965332,503.689270 
	C1190.108643,502.398102 1198.238770,501.023712 1207.266113,499.541534 
	C1204.890991,493.478302 1202.962646,488.117157 1200.691895,482.905121 
	C1199.036621,479.105896 1196.929932,475.503357 1195.006470,471.065582 
	C1193.388916,466.713745 1191.771240,462.361908 1190.203979,458.145538 
	C1181.669922,459.472443 1173.638428,460.637482 1165.650269,462.047913 
	C1164.361206,462.275543 1162.227661,463.652039 1162.268799,464.399689 
	C1162.406616,466.916931 1163.349854,469.390045 1163.370361,472.319977 
M1037.552246,558.492554 
	C1040.276245,558.533020 1043.062866,558.972473 1045.714966,558.555603 
	C1112.667480,548.031189 1179.606689,537.420654 1246.545654,526.809814 
	C1251.204224,526.071350 1255.843872,525.212830 1262.191284,524.116699 
	C1255.721680,517.236877 1250.433716,511.371521 1244.801025,505.858398 
	C1243.844727,504.922363 1241.354858,505.159088 1239.663330,505.425385 
	C1174.687744,515.655701 1109.722046,525.949158 1044.757202,536.247803 
	C1039.465088,537.086670 1034.188110,538.021667 1028.606079,538.962280 
	C1031.681274,545.758972 1034.401367,551.770386 1037.552246,558.492554 
M1247.220215,397.057037 
	C1250.203613,394.280518 1253.984497,391.986816 1256.014771,388.633270 
	C1261.250610,379.984863 1258.796021,370.728271 1255.469971,362.300354 
	C1250.948364,350.842682 1244.010498,340.591705 1234.737183,332.346924 
	C1226.435303,324.965973 1217.606567,318.236633 1205.474243,318.668304 
	C1201.999756,318.791931 1198.504639,318.175201 1195.013428,318.035980 
	C1189.211426,317.804596 1183.478394,321.623016 1180.839844,326.942810 
	C1176.744141,335.200684 1179.136963,343.736023 1181.478394,351.310181 
	C1185.928467,365.705322 1194.241943,378.303711 1205.814819,388.231964 
	C1211.681519,393.264832 1217.994019,398.003021 1226.134033,399.031799 
	C1233.046387,399.905396 1239.868774,399.943726 1247.220215,397.057037 
M1047.042114,348.789642 
	C1040.392578,350.260101 1033.658447,351.430939 1027.114746,353.276794 
	C1018.919373,355.588593 1011.716003,361.986816 1014.617065,373.051788 
	C1017.226440,383.004089 1018.710449,393.254303 1020.615173,403.387329 
	C1021.445435,407.804260 1021.713501,412.358948 1022.894714,416.670868 
	C1025.087524,424.676025 1028.997681,431.046448 1039.604858,428.249390 
	C1044.410645,426.982117 1049.453003,426.616394 1054.385132,425.822845 
	C1065.851440,423.977997 1077.315918,422.121765 1089.580811,420.140961 
	C1088.719360,417.858215 1088.228638,416.008698 1087.362061,414.356293 
	C1083.598389,407.179199 1079.680542,400.083008 1075.901123,392.913910 
	C1068.902466,379.638306 1061.992188,366.316101 1054.971680,353.052185 
	C1053.505249,350.281586 1052.032227,347.171051 1047.042114,348.789642 
M1067.705566,314.222351 
	C1064.841797,315.080353 1061.915649,315.782166 1059.149414,316.884735 
	C1058.234253,317.249481 1057.056396,318.732727 1057.161255,319.556763 
	C1057.524170,322.412872 1058.398560,325.204010 1059.114624,328.170349 
	C1061.762207,327.316925 1063.776611,326.522614 1065.861206,326.018311 
	C1084.420776,321.528534 1103.008667,317.152344 1121.526489,312.497772 
	C1122.780029,312.182709 1124.625244,308.980621 1124.351807,308.651001 
	C1121.933960,305.737030 1123.835083,299.704987 1118.082886,299.398499 
	C1116.172119,299.296661 1114.175049,300.129456 1112.270264,300.708954 
	C1097.675659,305.149231 1083.093994,309.632507 1067.705566,314.222351 
M1143.998901,489.487579 
	C1147.550781,488.624084 1151.075806,487.617126 1154.663208,486.942657 
	C1157.509644,486.407501 1159.934692,486.017548 1159.178345,482.067902 
	C1158.490234,478.474731 1156.619873,478.129883 1153.430298,478.799316 
	C1134.881226,482.692261 1116.287964,486.374481 1097.729126,490.221863 
	C1093.535156,491.091309 1089.418213,492.332977 1085.326050,493.387817 
	C1085.739990,500.996704 1086.012573,500.954498 1092.789551,499.555817 
	C1109.549683,496.096710 1126.373291,492.944672 1143.998901,489.487579 
M1228.842041,487.695221 
	C1223.691772,482.259186 1218.541504,476.823151 1213.391357,471.387115 
	C1212.969360,471.730835 1212.547485,472.074554 1212.125488,472.418274 
	C1213.540771,479.365509 1214.953491,486.313293 1216.373291,493.259583 
	C1216.666138,494.691711 1216.984741,496.118561 1217.399536,498.051239 
	C1223.192261,497.109558 1228.712036,496.212250 1235.184814,495.160034 
	C1232.659302,492.244415 1230.949585,490.270660 1228.842041,487.695221 
M959.993286,332.818054 
	C960.893433,332.778381 962.093811,333.100861 962.646973,332.642456 
	C967.750732,328.412903 972.759521,324.067627 977.758362,319.712921 
	C979.546082,318.155609 981.231201,316.480530 982.963135,314.859222 
	C982.699890,314.435791 982.436707,314.012390 982.173462,313.588959 
	C974.869202,315.198364 967.528442,316.669250 960.300781,318.570160 
	C959.247009,318.847351 958.018005,321.227966 958.111450,322.547363 
	C958.337097,325.735199 959.296814,328.871033 959.993286,332.818054 
z"/>
<path fill="#FFFEFE" opacity="1.000000" stroke="none" 
	d="
M1405.795654,215.204559 
	C1398.828979,216.844025 1391.599609,218.533051 1384.282959,219.650772 
	C1323.074341,229.001251 1261.845337,238.219788 1200.630859,247.531799 
	C1145.832275,255.867813 1091.047485,264.294586 1036.243896,272.597931 
	C1032.362183,273.186066 1028.259033,272.561920 1024.461792,273.410187 
	C1014.614502,275.610016 1004.887939,278.347351 995.095825,280.800476 
	C992.697021,281.401398 990.231323,281.735199 987.382202,282.069397 
	C988.311584,274.989044 989.713135,268.041687 990.984741,261.070648 
	C992.871033,250.728989 994.683350,240.373672 996.493774,230.018356 
	C998.445923,218.852554 1000.359863,207.680084 1002.378906,195.998489 
	C1003.934387,195.998489 1005.726074,195.998489 1007.517700,195.998489 
	C1119.848511,195.998489 1232.179932,195.825851 1344.509766,196.167480 
	C1363.357910,196.224777 1381.830566,199.977737 1398.419922,209.914703 
	C1400.900513,211.400589 1403.140869,213.287766 1405.795654,215.204559 
M1025.941650,258.798889 
	C1023.146118,259.253448 1020.336914,259.638275 1017.558411,260.179962 
	C1013.984070,260.876801 1010.295837,261.342194 1006.940857,262.641144 
	C1005.568420,263.172516 1004.206665,265.627594 1004.214172,267.200958 
	C1004.219788,268.368134 1006.572632,270.635590 1007.657471,270.508850 
	C1015.717468,269.567444 1023.760254,268.335938 1031.706299,266.699799 
	C1033.043213,266.424530 1034.801514,263.681732 1034.684204,262.213165 
	C1034.581299,260.922058 1032.264282,259.538513 1030.656128,258.732452 
	C1029.607300,258.206696 1028.077637,258.640350 1025.941650,258.798889 
z"/>
<path fill="#FAFAFA" opacity="1.000000" stroke="none" 
	d="
M1638.286377,217.732773 
	C1651.056763,220.160507 1663.402222,222.505783 1675.966919,224.892731 
	C1672.661621,232.466263 1669.584839,239.515793 1666.443970,246.712585 
	C1630.291382,240.994583 1594.324829,235.305984 1557.143433,229.425247 
	C1560.619751,220.760498 1563.939575,212.485413 1567.303345,204.100998 
	C1573.070068,205.159302 1578.541016,206.163315 1584.511353,207.258987 
	C1583.688721,211.821152 1582.920654,216.081421 1582.156738,220.318604 
	C1568.891968,218.197693 1568.891968,218.197693 1567.960083,221.763077 
	C1593.127686,226.714035 1618.251465,231.656342 1643.375244,236.598648 
	C1643.562378,235.927872 1643.749512,235.257095 1643.936646,234.586319 
	C1642.169800,230.056381 1636.973511,232.832947 1633.124512,229.607224 
	C1634.513306,226.101654 1636.187256,221.875992 1638.286377,217.732773 
z"/>
<path fill="#FBFBFB" opacity="1.000000" stroke="none" 
	d="
M1635.171631,261.877319 
	C1620.846924,259.538940 1606.963501,257.220856 1593.060913,255.024139 
	C1577.685669,252.594681 1562.279541,250.353973 1546.933838,247.754410 
	C1545.774536,247.558044 1544.112915,245.088898 1544.207642,243.786972 
	C1544.424316,240.806702 1545.584106,237.895020 1546.520874,234.350372 
	C1585.471436,240.512405 1624.515381,246.689194 1663.624268,252.876251 
	C1663.447144,253.572098 1663.406494,253.849548 1663.307495,254.104263 
	C1658.680664,265.993622 1658.689941,265.944092 1645.943970,263.383728 
	C1642.539062,262.699799 1639.053223,262.417664 1635.171631,261.877319 
z"/>
<path fill="#F2F3F2" opacity="1.000000" stroke="none" 
	d="
M1631.940674,220.088806 
	C1631.098999,220.867767 1630.248535,221.740799 1629.609009,221.606857 
	C1619.593994,219.509201 1609.610352,217.262604 1599.609375,215.096405 
	C1596.858398,214.500565 1594.087524,213.966263 1591.302490,213.566116 
	C1588.448242,213.156052 1587.081421,211.933151 1588.535034,208.266464 
	C1597.728882,209.958649 1607.098145,211.664978 1616.459473,213.414017 
	C1621.021606,214.266388 1625.557983,215.259689 1630.127319,216.069305 
	C1632.500977,216.489883 1633.249268,217.530472 1631.940674,220.088806 
z"/>
<path fill="#F2F3F2" opacity="1.000000" stroke="none" 
	d="
M1608.936768,226.027588 
	C1602.062134,224.618286 1595.577148,223.410126 1589.165405,221.892944 
	C1587.956055,221.606781 1587.037598,220.090546 1585.984985,219.141968 
	C1587.185913,218.430786 1588.543945,216.926331 1589.563843,217.128403 
	C1602.994385,219.789398 1616.377319,222.690903 1629.772095,225.532166 
	C1630.042114,226.033386 1630.312134,226.534592 1630.582153,227.035812 
	C1629.325073,227.924118 1627.933960,229.713974 1626.833496,229.550171 
	C1620.966187,228.676804 1615.171509,227.314651 1608.936768,226.027588 
z"/>
<path fill="#F2F3F2" opacity="1.000000" stroke="none" 
	d="
M1552.025391,223.867218 
	C1550.999878,227.973816 1550.999878,227.973816 1546.989014,227.834290 
	C1548.660400,222.664932 1547.786743,216.571732 1554.345581,212.434891 
	C1553.458374,216.692474 1552.751831,220.083633 1552.025391,223.867218 
z"/>
<path fill="#000000" opacity="1.000000" stroke="none" 
	d="
M743.961243,332.600403 
	C738.835571,334.080200 733.748840,335.156189 728.649231,336.167664 
	C718.640808,338.152771 708.589661,339.938141 698.622559,342.110718 
	C688.010559,344.423859 677.512939,347.263123 666.895752,349.549652 
	C657.348328,351.605835 647.674255,353.070404 638.116577,355.083282 
	C630.169312,356.756989 622.309937,358.848236 614.232544,360.797699 
	C614.232544,362.547546 614.232544,364.320557 614.232544,366.842621 
	C624.744629,364.815308 634.931763,362.861877 645.114136,360.883789 
	C655.297974,358.905396 665.512634,357.066437 675.648254,354.864655 
	C686.127136,352.588379 696.480042,349.724396 706.974182,347.529083 
	C718.599182,345.097290 730.321777,343.131683 742.488770,341.372894 
	C742.639526,343.846008 742.350403,345.918213 741.959778,347.971130 
	C738.279236,367.313843 734.581360,386.653259 730.888550,405.993622 
	C716.340698,410.306641 701.832275,414.759216 687.232971,418.890533 
	C674.560669,422.476562 661.762634,425.615906 649.062378,429.106262 
	C637.313477,432.335175 625.586243,435.653381 613.916016,439.154175 
	C607.086121,441.203003 600.430542,443.834229 593.596985,445.869141 
	C591.898987,446.374756 589.747986,446.911743 588.561523,443.742859 
	C585.357788,435.186188 581.517334,426.868927 577.971313,418.439087 
	C576.353394,414.592987 574.834167,410.705383 573.052368,406.537903 
	C574.680542,395.564850 576.513306,384.888184 578.376160,374.216736 
	C580.570679,361.645752 583.118774,349.125458 584.896545,336.496338 
	C586.306702,326.478546 590.167053,321.891876 599.966675,321.032074 
	C605.855103,320.515381 611.772156,320.059753 617.677551,320.045013 
	C653.622803,319.955414 689.568420,319.968109 725.513733,320.044739 
	C729.583862,320.053406 733.680054,320.483307 737.714661,321.062469 
	C742.244202,321.712616 744.005249,325.058533 743.961243,332.600403 
z"/>
<path fill="#000000" opacity="1.000000" stroke="none" 
	d="
M1244.080200,471.081421 
	C1238.470459,463.690155 1233.315308,456.228668 1228.005981,448.544220 
	C1239.988403,444.025238 1251.644897,439.629120 1263.661865,435.183289 
	C1262.270508,444.291412 1260.964966,453.567261 1258.584595,462.558655 
	C1257.343262,467.247467 1253.418701,471.498260 1244.080200,471.081421 
z"/>
<path fill="#F8C1B9" opacity="1.000000" stroke="none" 
	d="
M1048.980225,277.726349 
	C1043.742065,278.543610 1038.473511,279.008179 1033.204956,279.472717 
	C1033.103394,278.808594 1033.001831,278.144470 1032.900269,277.480347 
	C1038.016846,276.686523 1043.133423,275.892731 1048.672119,275.179626 
	C1049.046021,275.964752 1048.997925,276.669189 1048.980225,277.726349 
z"/>
<path fill="#F8C1B9" opacity="1.000000" stroke="none" 
	d="
M1064.294922,273.525665 
	C1066.111450,272.904510 1068.174194,272.517487 1070.634277,272.265289 
	C1068.868164,272.853363 1066.704834,273.306580 1064.294922,273.525665 
z"/>
<path fill="#F8C1B9" opacity="1.000000" stroke="none" 
	d="
M1057.272339,274.481018 
	C1058.496094,273.922485 1059.953735,273.601562 1061.782471,273.410400 
	C1060.604492,273.932953 1059.055298,274.325775 1057.272339,274.481018 
z"/>
<path fill="#F8C1B9" opacity="1.000000" stroke="none" 
	d="
M1051.214355,275.299438 
	C1052.146973,274.771454 1053.287598,274.488159 1054.780396,274.313324 
	C1053.895752,274.795929 1052.659058,275.170044 1051.214355,275.299438 
z"/>
<path fill="#F8C1B9" opacity="1.000000" stroke="none" 
	d="
M1073.214111,272.356567 
	C1074.445557,271.808929 1075.878296,271.481720 1077.671143,271.276184 
	C1076.492676,271.790894 1074.953979,272.183929 1073.214111,272.356567 
z"/>
<path fill="#FEFBFB" opacity="1.000000" stroke="none" 
	d="
M731.141602,406.214539 
	C734.581360,386.653259 738.279236,367.313843 741.959778,347.971130 
	C742.350403,345.918213 742.639526,343.846008 742.912903,341.367737 
	C744.260864,340.067841 745.567200,338.701935 747.098022,338.369690 
	C773.518188,332.634857 799.954956,326.975006 826.411743,321.410889 
	C843.456177,317.826263 860.541992,314.439362 877.601990,310.927979 
	C882.147278,309.992401 886.665344,308.924683 891.456116,308.365784 
	C891.206787,312.234497 890.697266,315.655029 890.187744,319.075531 
	C884.821594,321.060425 879.516174,323.232880 874.077820,324.994904 
	C858.042603,330.190308 841.962036,335.246552 825.885376,340.313263 
	C808.706970,345.727203 791.515198,351.099030 774.324402,356.473602 
	C764.375427,359.584015 754.386597,362.572723 744.499207,365.866821 
	C743.200195,366.299622 742.398438,368.224670 741.366394,369.458557 
	C743.028564,369.889313 744.913818,371.059174 746.317993,370.635284 
	C758.997559,366.807739 771.588989,362.688721 784.213806,358.678986 
	C804.127380,352.354370 824.049805,346.057922 843.962585,339.730682 
	C857.710388,335.362335 871.445374,330.953552 885.196350,326.595184 
	C886.132202,326.298553 887.154114,326.273468 888.532104,326.528503 
	C887.328918,335.314819 885.729492,343.694702 884.130127,352.074585 
	C883.696350,352.318298 883.247742,352.797699 882.830933,352.771484 
	C870.441528,351.993164 863.615295,360.634705 856.000122,368.221985 
	C853.549316,370.663849 850.234741,372.765076 846.936035,373.743744 
	C826.488464,379.810089 805.936951,385.526733 785.411743,391.330719 
	C769.624695,395.794922 753.826660,400.220032 738.031006,404.653870 
	C735.825989,405.272858 733.607056,405.842804 731.141602,406.214539 
z"/>
<path fill="#FEFBFB" opacity="1.000000" stroke="none" 
	d="
M1037.336792,558.137207 
	C1034.401367,551.770386 1031.681274,545.758972 1028.606079,538.962280 
	C1034.188110,538.021667 1039.465088,537.086670 1044.757202,536.247803 
	C1109.722046,525.949158 1174.687744,515.655701 1239.663330,505.425385 
	C1241.354858,505.159088 1243.844727,504.922363 1244.801025,505.858398 
	C1250.433716,511.371521 1255.721680,517.236877 1262.191284,524.116699 
	C1255.843872,525.212830 1251.204224,526.071350 1246.545654,526.809814 
	C1179.606689,537.420654 1112.667480,548.031189 1045.714966,558.555603 
	C1043.062866,558.972473 1040.276245,558.533020 1037.336792,558.137207 
z"/>
<path fill="#000000" opacity="1.000000" stroke="none" 
	d="
M1246.816162,397.059631 
	C1239.868774,399.943726 1233.046387,399.905396 1226.134033,399.031799 
	C1217.994019,398.003021 1211.681519,393.264832 1205.814819,388.231964 
	C1194.241943,378.303711 1185.928467,365.705322 1181.478394,351.310181 
	C1179.136963,343.736023 1176.744141,335.200684 1180.839844,326.942810 
	C1183.478394,321.623016 1189.211426,317.804596 1195.013428,318.035980 
	C1198.504639,318.175201 1201.999756,318.791931 1205.474243,318.668304 
	C1217.606567,318.236633 1226.435303,324.965973 1234.737183,332.346924 
	C1244.010498,340.591705 1250.948364,350.842682 1255.469971,362.300354 
	C1258.796021,370.728271 1261.250610,379.984863 1256.014771,388.633270 
	C1253.984497,391.986816 1250.203613,394.280518 1246.816162,397.059631 
z"/>
<path fill="#FEFAF9" opacity="1.000000" stroke="none" 
	d="
M1195.024536,471.813110 
	C1196.929932,475.503357 1199.036621,479.105896 1200.691895,482.905121 
	C1202.962646,488.117157 1204.890991,493.478302 1207.266113,499.541534 
	C1198.238770,501.023712 1190.108643,502.398102 1181.965332,503.689270 
	C1131.297119,511.722778 1080.615723,519.674011 1029.973755,527.869385 
	C1025.512207,528.591431 1023.468506,527.436401 1021.811768,523.410156 
	C1017.535706,513.018372 1012.882996,502.781525 1008.175903,492.014252 
	C1029.972778,487.770874 1051.631592,483.554382 1074.123657,479.175659 
	C1076.119507,486.624512 1078.056641,493.854156 1080.175903,501.763519 
	C1075.817627,502.536591 1072.096191,503.151093 1068.396362,503.875763 
	C1066.949707,504.159088 1065.296509,504.360107 1064.206055,505.204163 
	C1063.196533,505.985443 1062.813110,507.575378 1062.154053,508.809265 
	C1063.504761,509.456299 1064.954956,510.808685 1066.189697,510.634247 
	C1073.441650,509.609589 1080.664795,508.339355 1087.857666,506.945526 
	C1104.679443,503.685760 1121.487793,500.354248 1138.284302,496.966736 
	C1154.264771,493.743774 1170.237061,490.475708 1186.165039,487.006958 
	C1187.403076,486.737274 1188.262573,484.729248 1189.298096,483.529175 
	C1187.981934,482.633850 1186.550781,480.846375 1185.369751,480.998779 
	C1180.434448,481.635498 1175.463379,482.497253 1170.720703,483.970123 
	C1166.710815,485.215393 1165.092407,483.584137 1164.383911,480.191040 
	C1163.844849,477.609344 1163.693970,474.946625 1164.145386,472.152191 
	C1174.955078,471.927307 1184.989868,471.870209 1195.024536,471.813110 
z"/>
<path fill="#FFFCFC" opacity="1.000000" stroke="none" 
	d="
M1047.442383,348.721924 
	C1052.032227,347.171051 1053.505249,350.281586 1054.971680,353.052185 
	C1061.992188,366.316101 1068.902466,379.638306 1075.901123,392.913910 
	C1079.680542,400.083008 1083.598389,407.179199 1087.362061,414.356293 
	C1088.228638,416.008698 1088.719360,417.858215 1089.580811,420.140961 
	C1077.315918,422.121765 1065.851440,423.977997 1054.385132,425.822845 
	C1049.453003,426.616394 1044.410645,426.982117 1039.604858,428.249390 
	C1028.997681,431.046448 1025.087524,424.676025 1022.894714,416.670868 
	C1021.713501,412.358948 1021.445435,407.804260 1020.615173,403.387329 
	C1018.710449,393.254303 1017.226440,383.004089 1014.617065,373.051788 
	C1011.716003,361.986816 1018.919373,355.588593 1027.114746,353.276794 
	C1033.658447,351.430939 1040.392578,350.260101 1047.442383,348.721924 
z"/>
<path fill="#000000" opacity="1.000000" stroke="none" 
	d="
M1122.081421,334.971191 
	C1127.762451,337.020660 1133.960449,338.234985 1138.985229,341.344879 
	C1144.454590,344.730011 1149.524048,349.329346 1153.524414,354.383545 
	C1159.170776,361.517639 1164.544800,369.143616 1168.420898,377.324219 
	C1172.238281,385.380737 1173.810059,394.503998 1170.947021,403.470947 
	C1168.709351,410.479370 1162.835083,413.973816 1156.107056,414.768158 
	C1149.062500,415.599823 1141.692993,415.819946 1134.752686,414.631104 
	C1130.250977,413.860016 1125.881836,410.556000 1122.150757,407.527496 
	C1118.219604,404.336548 1115.118164,400.123260 1111.447021,395.797791 
	C1111.839722,391.440338 1112.361084,387.627380 1113.053101,383.845642 
	C1116.035400,367.549194 1119.067505,351.261871 1122.081421,334.971191 
z"/>
<path fill="#000000" opacity="1.000000" stroke="none" 
	d="
M884.534546,352.046936 
	C885.729492,343.694702 887.328918,335.314819 888.923462,326.537109 
	C894.794006,324.178680 900.640869,322.127075 906.551636,320.279694 
	C914.649963,317.748566 922.825073,315.462219 930.915833,312.907928 
	C941.635254,309.523712 952.284485,305.917297 963.003296,302.531036 
	C970.013672,300.316315 977.093811,298.322510 984.553955,296.510925 
	C984.604675,299.212799 984.244141,301.633514 983.883606,304.054199 
	C978.318481,305.176025 972.696838,306.075287 967.200745,307.469330 
	C957.847168,309.841858 948.563843,312.494354 939.270691,315.099548 
	C936.793213,315.794098 934.171692,316.388397 932.018921,317.693115 
	C930.387512,318.681824 928.424438,320.649261 928.293152,322.313934 
	C927.815247,328.375763 928.134705,334.496033 927.950256,340.588135 
	C927.898071,342.310791 927.152649,344.012482 926.876587,345.117493 
	C912.612366,347.465027 898.775696,349.742188 884.534546,352.046936 
z"/>
<path fill="#FEFBFA" opacity="1.000000" stroke="none" 
	d="
M1282.870239,328.011993 
	C1284.867188,328.825165 1287.019165,329.384003 1288.836060,330.492249 
	C1301.897217,338.459198 1314.541504,347.005768 1325.043457,358.293091 
	C1326.412109,359.764221 1327.179321,361.794952 1328.545410,364.109192 
	C1315.052002,369.502808 1302.291138,374.603638 1289.673706,379.647095 
	C1286.003174,370.746674 1282.499512,362.250610 1278.989014,352.964722 
	C1280.278198,344.120605 1281.574219,336.066315 1282.870239,328.011993 
z"/>
<path fill="#FEFBFB" opacity="1.000000" stroke="none" 
	d="
M1121.700195,334.793457 
	C1119.067505,351.261871 1116.035400,367.549194 1113.053101,383.845642 
	C1112.361084,387.627380 1111.839722,391.440338 1111.153809,395.641113 
	C1108.240356,392.673645 1104.983398,389.573883 1102.665649,385.884125 
	C1095.472778,374.432983 1091.209839,361.996399 1092.174805,348.267670 
	C1092.744385,340.163361 1096.544678,336.119629 1104.537720,335.225281 
	C1110.084717,334.604675 1115.722046,334.790344 1121.700195,334.793457 
z"/>
<path fill="#FEF6F5" opacity="1.000000" stroke="none" 
	d="
M1068.106934,314.162384 
	C1083.093994,309.632507 1097.675659,305.149231 1112.270264,300.708954 
	C1114.175049,300.129456 1116.172119,299.296661 1118.082886,299.398499 
	C1123.835083,299.704987 1121.933960,305.737030 1124.351807,308.651001 
	C1124.625244,308.980621 1122.780029,312.182709 1121.526489,312.497772 
	C1103.008667,317.152344 1084.420776,321.528534 1065.861206,326.018311 
	C1063.776611,326.522614 1061.762207,327.316925 1059.114624,328.170349 
	C1058.398560,325.204010 1057.524170,322.412872 1057.161255,319.556763 
	C1057.056396,318.732727 1058.234253,317.249481 1059.149414,316.884735 
	C1061.915649,315.782166 1064.841797,315.080353 1068.106934,314.162384 
z"/>
<path fill="#FDF3F1" opacity="1.000000" stroke="none" 
	d="
M1143.585205,489.578400 
	C1126.373291,492.944672 1109.549683,496.096710 1092.789551,499.555817 
	C1086.012573,500.954498 1085.739990,500.996704 1085.326050,493.387817 
	C1089.418213,492.332977 1093.535156,491.091309 1097.729126,490.221863 
	C1116.287964,486.374481 1134.881226,482.692261 1153.430298,478.799316 
	C1156.619873,478.129883 1158.490234,478.474731 1159.178345,482.067902 
	C1159.934692,486.017548 1157.509644,486.407501 1154.663208,486.942657 
	C1151.075806,487.617126 1147.550781,488.624084 1143.585205,489.578400 
z"/>
<path fill="#010000" opacity="1.000000" stroke="none" 
	d="
M1282.516602,327.985535 
	C1281.574219,336.066315 1280.278198,344.120605 1278.905762,352.599609 
	C1269.632568,339.432953 1258.086060,328.427734 1243.459106,320.784424 
	C1242.617432,320.344635 1241.999146,319.477356 1241.588867,318.419739 
	C1248.614990,318.005890 1255.329102,317.981354 1262.043213,317.956787 
	C1268.749756,321.290833 1275.456299,324.624939 1282.516602,327.985535 
z"/>
<path fill="#FDF4F2" opacity="1.000000" stroke="none" 
	d="
M1153.533325,472.199524 
	C1130.172485,477.116028 1106.811768,482.032532 1083.116211,487.019470 
	C1082.226562,484.108643 1081.421509,481.474457 1080.190186,477.445923 
	C1093.531494,475.552734 1106.298706,473.740997 1119.986572,471.950684 
	C1131.782715,472.047913 1142.657959,472.123718 1153.533325,472.199524 
z"/>
<path fill="#010000" opacity="1.000000" stroke="none" 
	d="
M890.521118,318.888794 
	C890.697266,315.655029 891.206787,312.234497 891.866760,308.436035 
	C899.201172,306.691071 906.389771,305.347839 913.567444,303.948700 
	C918.334900,303.019440 923.097534,302.059479 927.843384,301.026428 
	C937.461365,298.932831 947.061523,296.757904 956.678650,294.660309 
	C962.554871,293.378601 968.448914,292.178467 975.069580,290.728394 
	C977.326477,290.325623 978.848755,290.136230 980.371033,289.946808 
	C980.392517,290.127014 980.413940,290.307220 980.435425,290.487427 
	C977.651855,291.386597 974.868286,292.285767 972.084717,293.184875 
	C959.049072,297.163269 945.972168,301.012543 932.990845,305.160858 
	C922.565430,308.492340 912.275391,312.245300 901.884155,315.686981 
	C898.271057,316.883667 894.534607,317.707764 890.521118,318.888794 
z"/>
<path fill="#000000" opacity="1.000000" stroke="none" 
	d="
M1195.015503,471.439331 
	C1184.989868,471.870209 1174.955078,471.927307 1164.452637,471.932220 
	C1163.349854,469.390045 1162.406616,466.916931 1162.268799,464.399689 
	C1162.227661,463.652039 1164.361206,462.275543 1165.650269,462.047913 
	C1173.638428,460.637482 1181.669922,459.472443 1190.203979,458.145538 
	C1191.771240,462.361908 1193.388916,466.713745 1195.015503,471.439331 
z"/>
<path fill="#FDF5F3" opacity="1.000000" stroke="none" 
	d="
M984.315247,304.105591 
	C984.244141,301.633514 984.604675,299.212799 984.898621,296.382294 
	C994.055054,292.542908 1003.278076,289.113342 1012.822388,285.564331 
	C1013.415894,287.390350 1013.809570,288.427429 1014.090759,289.494141 
	C1016.208984,297.528381 1015.912292,297.885315 1007.685242,299.465393 
	C1000.021423,300.937256 992.391663,302.586060 984.315247,304.105591 
z"/>
<path fill="#FDF2EF" opacity="1.000000" stroke="none" 
	d="
M1229.041016,487.996063 
	C1230.949585,490.270660 1232.659302,492.244415 1235.184814,495.160034 
	C1228.712036,496.212250 1223.192261,497.109558 1217.399536,498.051239 
	C1216.984741,496.118561 1216.666138,494.691711 1216.373291,493.259583 
	C1214.953491,486.313293 1213.540771,479.365509 1212.125488,472.418274 
	C1212.547485,472.074554 1212.969360,471.730835 1213.391357,471.387115 
	C1218.541504,476.823151 1223.691772,482.259186 1229.041016,487.996063 
z"/>
<path fill="#010000" opacity="1.000000" stroke="none" 
	d="
M959.976929,332.422943 
	C959.296814,328.871033 958.337097,325.735199 958.111450,322.547363 
	C958.018005,321.227966 959.247009,318.847351 960.300781,318.570160 
	C967.528442,316.669250 974.869202,315.198364 982.173462,313.588959 
	C982.436707,314.012390 982.699890,314.435791 982.963135,314.859222 
	C981.231201,316.480530 979.546082,318.155609 977.758362,319.712921 
	C972.759521,324.067627 967.750732,328.412903 962.646973,332.642456 
	C962.093811,333.100861 960.893433,332.778381 959.976929,332.422943 
z"/>
<path fill="#FDF3F1" opacity="1.000000" stroke="none" 
	d="
M1262.077393,317.661987 
	C1255.329102,317.981354 1248.614990,318.005890 1241.435425,318.112183 
	C1235.852783,315.761353 1230.735596,313.328857 1224.869019,310.540131 
	C1232.145020,307.218964 1252.478027,311.390472 1262.077393,317.661987 
z"/>
<path fill="#010000" opacity="1.000000" stroke="none" 
	d="
M1153.828857,471.874390 
	C1142.657959,472.123718 1131.782715,472.047913 1120.440918,471.895508 
	C1129.336670,469.858215 1138.696167,467.885132 1148.062744,465.946594 
	C1150.113403,465.522186 1152.189453,465.220917 1155.260132,464.688354 
	C1154.825439,467.314850 1154.474976,469.432068 1153.828857,471.874390 
z"/>
<path fill="#E14020" opacity="1.000000" stroke="none" 
	d="
M972.343384,293.426331 
	C974.868286,292.285767 977.651855,291.386597 980.435425,290.487427 
	C980.413940,290.307220 980.392517,290.127014 980.371033,289.946808 
	C978.848755,290.136230 977.326477,290.325623 975.464844,290.616699 
	C976.425598,289.979950 977.644165,288.896912 979.040833,288.566437 
	C983.639709,287.478210 988.303162,286.662598 993.165527,286.496490 
	C986.691223,290.028809 980.045349,292.951263 972.343384,293.426331 
z"/>
<path fill="#F52D1D" opacity="1.000000" stroke="none" 
	d="
M1026.352539,258.721558 
	C1028.077637,258.640350 1029.607300,258.206696 1030.656128,258.732452 
	C1032.264282,259.538513 1034.581299,260.922058 1034.684204,262.213165 
	C1034.801514,263.681732 1033.043213,266.424530 1031.706299,266.699799 
	C1023.760254,268.335938 1015.717468,269.567444 1007.657471,270.508850 
	C1006.572632,270.635590 1004.219788,268.368134 1004.214172,267.200958 
	C1004.206665,265.627594 1005.568420,263.172516 1006.940857,262.641144 
	C1010.295837,261.342194 1013.984070,260.876801 1017.558411,260.179962 
	C1020.336914,259.638275 1023.146118,259.253448 1026.352539,258.721558 
z"/>
</svg>